<?xml version="1.0" encoding="UTF-8"?>
<svg width="86px" height="53px" viewBox="0 0 86 53" version="1.1" xmlns="http://www.w3.org/2000/svg" xmlns:xlink="http://www.w3.org/1999/xlink">
    <!-- Generator: Sketch 51.3 (57544) - http://www.bohemiancoding.com/sketch -->
    <title>wagerrWred</title>
    <desc>Created with Sketch.</desc>
    <defs></defs>
    <g id="Page-1" stroke="none" stroke-width="1" fill="none" fill-rule="evenodd">
        <g id="Desktop" transform="translate(-74.000000, -23.000000)" fill="#FFFFFF" fill-rule="nonzero">
            <g id="wagerrWred" transform="translate(74.000000, 23.000000)">
                <path d="M85.5442445,1.70954228 C84.8910271,0.55485144 83.8369717,0 82.4563076,0 C73.9941728,0.0299919697 65.532038,0.0899759092 57.0699033,0.0149959849 C54.9321008,0 53.6553576,0.839775153 52.6606856,2.66928531 C50.5228832,6.56824137 48.2663139,10.4072135 46.0542822,14.2761776 C45.1189936,15.9107399 44.2133967,17.5602983 43.292954,19.1948606 C43.2187247,19.3148285 43.1148038,19.4198004 42.996037,19.5097763 C42.892116,19.4048044 42.7733492,19.3148285 42.69912,19.1948606 C41.7638314,17.5602983 40.8582345,15.9107399 39.9377918,14.2761776 C37.7406059,10.4072135 35.4691907,6.58323736 33.3313883,2.66928531 C32.3367163,0.839775153 31.0599731,2.66382203e-15 28.9221707,0.0149959849 C20.4600359,0.0899759092 11.9979011,0.0299919697 3.53576628,2.66382203e-15 C2.16994804,2.66382203e-15 1.1010468,0.55485144 0.447829375,1.70954228 C-0.220233898,2.8792291 -0.116312945,4.10889985 0.59628788,5.30857864 C1.57611401,6.943141 2.5114026,8.60769532 3.46153703,10.2572537 C6.07440672,14.831029 8.67243056,19.4048044 11.2853003,23.9785798 C14.0317826,28.792291 16.7931108,33.5910061 19.554439,38.4047173 C22.0188502,42.7085649 24.4684155,46.9974166 26.9476726,51.2862683 C27.6305817,52.4559551 28.6549454,53.0557945 30.0059178,52.9958105 C31.3271985,52.9358266 32.262487,52.2610073 32.8860128,51.0913205 C33.5243843,49.9216336 34.1924476,48.7519468 34.8605109,47.597256 C37.0576968,43.7582839 39.2548826,39.9043157 41.4520685,36.0653436 C41.9419816,35.1955765 42.4615863,34.3408054 43.0108828,33.3810623 C43.5750251,34.3408054 44.079784,35.1955765 44.5696971,36.0653436 C46.766883,39.9043157 48.9640689,43.7582839 51.1612547,47.597256 C51.829318,48.7669428 52.4973813,49.9216336 53.1357529,51.0913205 C53.7592786,52.2610073 54.6945672,52.9358266 56.0158479,52.9958105 C57.3668203,53.0557945 58.3911839,52.4709511 59.0740931,51.2862683 C61.5385043,46.9974166 64.0029154,42.6935689 66.4673266,38.4047173 C69.2286548,33.5910061 71.9751372,28.792291 74.7364654,23.9785798 C77.3493351,19.4048044 79.9473589,14.831029 82.5602286,10.2572537 C83.510363,8.60769532 84.4308058,6.943141 85.4254777,5.30857864 C86.1232327,4.10889985 86.2123078,2.8792291 85.5442445,1.70954228 Z M38.9282739,27.1277366 C36.4490169,31.5215602 33.9400681,35.9003878 31.4311194,40.2792154 C30.9560522,41.1189905 30.4512933,41.9287737 29.8574593,42.9485007 C22.9541388,30.8467409 16.1250475,18.864949 9.23657288,6.79318115 C9.622565,6.76318918 9.8897903,6.71820122 10.1570156,6.71820122 C15.7984388,6.70320524 21.439862,6.70320524 27.0812852,6.67321327 C27.7048109,6.67321327 28.0611113,6.86816107 28.3728742,7.40801653 C31.3865819,12.7315912 34.4151354,18.0251738 37.4436889,23.3337525 C37.9484478,24.2185156 38.5125901,25.0732867 38.9431198,25.9730458 C39.0915783,26.2879615 39.1064241,26.8278169 38.9282739,27.1277366 Z M56.1643064,42.9485007 C55.5704724,41.9437697 55.0657134,41.1189905 54.5906462,40.2792154 C52.0816975,35.9003878 49.5727487,31.5215602 47.0934917,27.1277366 C46.9301873,26.8278169 46.9301873,26.2879615 47.0934917,25.9730458 C47.5388672,25.0582907 48.0881637,24.2035196 48.5929226,23.3337525 C51.6214761,18.0251738 54.6500296,12.7165952 57.6637373,7.40801653 C57.9755001,6.86816107 58.3318005,6.67321327 58.9553263,6.67321327 C64.5967495,6.70320524 70.2381727,6.70320524 75.8795959,6.71820122 C76.1468212,6.71820122 76.3992006,6.76318918 76.8000386,6.79318115 C69.8967181,18.864949 63.0676269,30.8467409 56.1643064,42.9485007 Z" id="Shape"></path>
            </g>
        </g>
    </g>
</svg>