<?xml version="1.0" encoding="UTF-8"?>
<svg width="148px" height="48px" viewBox="0 0 148 48" version="1.1" xmlns="http://www.w3.org/2000/svg" xmlns:xlink="http://www.w3.org/1999/xlink">
    <!-- Generator: Sketch 51.3 (57544) - http://www.bohemiancoding.com/sketch -->
    <title>WGR</title>
    <desc>Created with Sketch.</desc>
    <defs></defs>
    <g id="Page-1" stroke="none" stroke-width="1" fill="none" fill-rule="evenodd">
        <g id="Desktop" transform="translate(-43.000000, -820.000000)">
            <g id="WGR" transform="translate(43.000000, 820.000000)">
                <g id="Group-6" transform="translate(0.000000, 0.244100)"></g>
                <path d="M105.9492,19.7841 L105.9492,40.3111 C105.6482,40.5641 105.3472,40.8021 105.0312,41.0231 C104.4292,41.4821 103.8122,41.9101 103.1642,42.3211 C101.7872,43.2081 100.3142,43.9991 98.7162,44.7121 C98.3202,44.8861 97.9092,45.0591 97.4982,45.2181 C96.6752,45.5501 95.8202,45.8501 94.9492,46.1041 C92.3222,46.8641 89.4412,47.2441 86.3402,47.2441 C84.5672,47.2441 82.8572,47.1011 81.2272,46.8161 C80.4042,46.6741 79.5972,46.4841 78.8212,46.2781 C78.4262,46.1681 78.0302,46.0561 77.6502,45.9301 C77.2702,45.8051 76.8902,45.6771 76.5122,45.5341 C76.1312,45.3911 75.7662,45.2331 75.4032,45.0751 C74.6752,44.7591 73.9782,44.4111 73.2982,44.0311 C72.6172,43.6671 71.9692,43.2551 71.3362,42.8281 C70.4012,42.1801 69.5152,41.4671 68.6922,40.6911 C66.4762,38.6181 64.7512,36.1331 63.5012,33.2531 C63.3742,32.9521 63.2482,32.6511 63.1212,32.3501 L63.1212,32.3351 L72.6492,3.6241 C72.7922,3.5291 72.9332,3.4341 73.0932,3.3551 C73.7412,2.9751 74.4372,2.6111 75.1492,2.2951 C75.5132,2.1211 75.8782,1.9781 76.2582,1.8201 C79.2642,0.6011 82.5102,0.0001 86.0232,0.0001 C89.0302,0.0001 91.7362,0.3321 94.1422,0.9811 C94.9332,1.2031 95.7092,1.4561 96.4372,1.7411 C96.8012,1.8841 97.1652,2.0421 97.5132,2.2161 C97.8772,2.3741 98.2252,2.5481 98.5742,2.7221 C98.9222,2.8961 99.2702,3.0701 99.6182,3.2611 C99.9982,3.4661 100.3622,3.6871 100.7112,3.9091 C101.1372,4.1621 101.5492,4.4311 101.9452,4.7171 C102.0092,4.7481 102.0712,4.7961 102.1352,4.8431 C102.6732,5.2071 103.2112,5.6021 103.7182,6.0141 C103.8442,6.1091 103.9702,6.2211 104.0972,6.3311 C104.2082,6.4261 104.3352,6.5201 104.4452,6.6161 L97.0542,15.5111 C96.6422,15.1621 96.2312,14.8301 95.8202,14.5291 C95.1232,14.0221 94.4282,13.5801 93.7302,13.1831 C93.3672,12.9781 93.0182,12.7881 92.6542,12.6301 C92.4492,12.5191 92.2272,12.4241 92.0212,12.3291 C90.3122,11.6011 88.3342,11.2211 86.0862,11.2211 C84.4402,11.2211 82.9052,11.5551 81.5122,12.2031 C80.4682,12.6781 79.5022,13.2951 78.6632,14.0701 C78.5202,14.1801 78.3792,14.3071 78.2522,14.4661 C78.1092,14.5931 77.9672,14.7351 77.8412,14.8781 C76.7962,16.0011 75.9722,17.2991 75.3712,18.8181 C74.7692,20.3381 74.4702,21.9521 74.4702,23.6931 L74.4702,23.8191 C74.4702,25.6391 74.7692,27.3171 75.3712,28.8681 C75.9882,30.4351 76.8442,31.7641 77.9512,32.8731 C78.7742,33.6951 79.7232,34.3921 80.7682,34.9461 C81.1162,35.1361 81.4802,35.3101 81.8602,35.4531 C82.6042,35.7691 83.3952,36.0071 84.2192,36.1651 C85.0422,36.3231 85.9282,36.4021 86.8302,36.4021 C87.9382,36.4021 88.9672,36.3231 89.9322,36.1331 C90.8972,35.9591 91.7842,35.6901 92.5912,35.3421 C93.1452,35.1041 93.6512,34.8351 94.1262,34.5181 L94.1262,29.0111 L85.1682,29.0111 L85.1682,19.7841 L105.9492,19.7841 Z" id="Fill-2" fill="#000000"></path>
                <path d="M133.2822,18.249 C133.2822,19.895 132.6972,21.192 131.5252,22.174 C130.3542,23.14 128.6922,23.63 126.5402,23.63 L118.2312,23.63 L118.2312,12.725 L126.4612,12.725 C128.5822,12.725 130.2602,13.168 131.4632,14.055 C132.6802,14.94 133.2822,16.302 133.2822,18.106 L133.2822,18.249 Z M105.6332,10.446 L105.3322,10.81 L105.2202,10.937 L101.3112,15.653 L109.5262,15.653 L109.5262,47.244 L118.2312,47.244 L118.2312,33.49 L123.7392,33.49 L132.8862,47.244 L147.4312,47.244 L136.5912,31.417 C139.4552,30.198 141.7192,28.457 143.4122,26.162 C145.0902,23.867 145.9282,20.971 145.9282,17.457 L145.9282,17.331 C145.9282,12.883 144.5982,9.353 141.9082,6.758 C140.4042,5.207 138.4272,3.988 136.0052,3.118 C133.5832,2.264 130.6232,1.82 127.1102,1.82 L112.8342,1.82 L107.8642,7.787 L105.9652,10.066 L105.6332,10.446 Z" id="Fill-4" fill="#000000"></path>
                <polygon id="Fill-1" fill="#000000" points="29.9763 0.6808 21.2233 27.0958 13.3113 0.8078 0.0003 0.8078 15.1933 46.5638 26.1633 46.5638 35.2463 20.4018 44.3943 46.5638 55.3633 46.5638 60.1113 32.2398 69.6393 3.4978 70.5413 0.8078 57.5003 0.8078 49.5853 27.0958 40.8183 0.6808"></polygon>
            </g>
        </g>
    </g>
</svg>