<?xml version="1.0" encoding="UTF-8"?>
<svg width="28px" height="28px" viewBox="0 0 28 28" version="1.1" xmlns="http://www.w3.org/2000/svg" xmlns:xlink="http://www.w3.org/1999/xlink">
    <!-- Generator: Sketch 51.3 (57544) - http://www.bohemiancoding.com/sketch -->
    <title>Group 3</title>
    <desc>Created with Sketch.</desc>
    <defs></defs>
    <g id="Page-1" stroke="none" stroke-width="1" fill="none" fill-rule="evenodd">
        <g id="Desktop" transform="translate(-796.000000, -27.000000)">
            <g id="Group-4" transform="translate(270.000000, 23.000000)">
                <g id="Group-3" transform="translate(523.000000, 1.000000)">
                    <polygon id="Stroke-1" stroke-opacity="0.00784313771" stroke="#000000" stroke-width="1.33333335e-11" points="0 0 34 0 34 34 0 34"></polygon>
                    <path d="M27.6969877,18.3720008 C27.75456,17.9240012 27.7977365,17.4760002 27.7977365,17.0000014 C27.7977365,16.5240025 27.7545572,16.0760014 27.6969877,15.6280018 L30.7338576,13.3180022 C31.0073204,13.1080027 31.079283,12.730002 30.9065716,12.4220016 L28.0280228,7.57800109 C27.8553088,7.27000135 27.4667067,7.15800078 27.1500646,7.27000135 L23.5662716,8.67000149 C22.8178483,8.11000131 22.0118554,7.64800136 21.1338972,7.29800133 L20.5869727,3.58800083 C20.5437935,3.25200011 20.2415459,3 19.8817273,3 L14.1246297,3 C13.7648111,3 13.4625634,3.25200011 13.4193855,3.58800016 L12.8724611,7.29800067 C11.9945042,7.6480007 11.1885099,8.12400096 10.4400873,8.67000083 L6.85629363,7.27000069 C6.52526051,7.14400046 6.15104951,7.27000069 5.97833606,7.57800043 L3.09978726,12.4220003 C2.91268142,12.7300007 2.99903815,13.108 3.27250003,13.3180009 L6.3093692,15.6280018 C6.25179828,16.0760014 6.20861975,16.5380014 6.20861975,17.0000014 C6.20861975,17.4620013 6.25179828,17.9240012 6.3093692,18.3720008 L3.27250036,20.6820005 C2.99903815,20.892 2.9270745,21.2700007 3.09978726,21.5780012 L5.97833606,26.4220016 C6.15104883,26.7300007 6.53965289,26.8420006 6.85629363,26.7300007 L10.4400866,25.3300006 C11.1885092,25.89 11.9945028,26.352 12.8724597,26.702 L13.4193841,30.4119999 C13.462562,30.7479996 13.7648097,31 14.1246283,31 L19.8817258,31 C20.2415444,31 20.5437921,30.7479996 20.58697,30.4119999 L21.1338944,26.702 C22.0118512,26.352 22.8178456,25.8759998 23.5662689,25.3300006 L27.1500619,26.7300007 C27.4810942,26.856001 27.855306,26.7300007 28.0280201,26.4220016 L30.9065689,21.5780012 C31.079283,21.2700007 31.0073177,20.8920014 30.7338548,20.6820005 L27.6969848,18.3720008 L27.6969877,18.3720008 Z M17.0031785,21.9000019 C14.2253783,21.9000019 11.9657181,19.7020021 11.9657181,17.0000014 C11.9657181,14.2980006 14.2253783,12.1000009 17.0031785,12.1000009 C19.7809785,12.1000009 22.0406389,14.2980006 22.0406389,17.0000014 C22.0406389,19.7020021 19.7809785,21.9000019 17.0031785,21.9000019 Z" id="Fill-2" fill="#FFFFFF"></path>
                </g>
            </g>
        </g>
    </g>
</svg>