<?xml version="1.0" encoding="UTF-8"?>
<svg width="34px" height="34px" viewBox="0 0 34 34" version="1.1" xmlns="http://www.w3.org/2000/svg" xmlns:xlink="http://www.w3.org/1999/xlink">
    <!-- Generator: Sketch 51.3 (57544) - http://www.bohemiancoding.com/sketch -->
    <title>Group 3</title>
    <desc>Created with Sketch.</desc>
    <defs>
        <polygon id="path-1" points="7.18309859e-05 0 33.9755775 0 33.9755775 33.9755056 7.18309859e-05 33.9755056"></polygon>
    </defs>
    <g id="Page-1" stroke="none" stroke-width="1" fill="none" fill-rule="evenodd">
        <g id="Desktop" transform="translate(-478.000000, -26.000000)">
            <g id="Group-3" transform="translate(478.000000, 26.000000)">
                <mask id="mask-2" fill="white">
                    <use xlink:href="#path-1"></use>
                </mask>
                <g id="Clip-2"></g>
                <path d="M26.4144803,12.8181676 C26.2701,12.5658014 25.9796634,12.2653085 25.4133958,12.2653085 C24.8090577,12.2653085 24.2049592,12.2672239 23.6006211,12.2691394 C22.3945789,12.2729704 21.192607,12.2768014 19.9779451,12.2653085 C19.3781563,12.2653085 18.9711141,12.5102521 18.7027056,13.0255197 C18.2551986,13.821407 17.7825507,14.6319 17.3257056,15.4158155 L17.2897901,15.4773507 C17.1849169,15.6523789 17.0841141,15.8314775 16.9833113,16.0108155 C16.9734944,16.0290127 16.9631986,16.0472099 16.9531423,16.0651676 C16.9423676,16.0462521 16.9318324,16.0273366 16.9212972,16.0084211 C16.8209732,15.8300408 16.7208887,15.6514211 16.6188887,15.4816606 L16.5805789,15.4158155 C16.1237338,14.6319 15.6510859,13.821407 15.2090859,13.0362944 C14.934931,12.5102521 14.5276493,12.2653085 13.9245085,12.2653085 C12.7182268,12.276562 11.5114662,12.2729704 10.3059028,12.2691394 C9.70132535,12.2672239 9.09698732,12.2653085 8.49240986,12.2653085 C8.0702831,12.2653085 7.72788873,12.450393 7.50233944,12.8006887 L7.48629718,12.8279845 C7.28804366,13.2003085 7.30336761,13.5970549 7.53059296,13.9758437 C7.63187465,14.1448859 7.7329169,14.3177592 7.83419859,14.4908718 C7.93811408,14.6682944 8.04179014,14.8454775 8.14259296,15.013562 C8.36263521,15.3937873 8.5802831,15.7740127 8.79745211,16.1530408 C9.1367338,16.7463648 9.47481831,17.3372944 9.81601549,17.9160127 C10.2419732,18.6680831 10.6851704,19.4242239 11.113762,20.1559423 L11.5957479,20.9796042 C11.8564944,21.4254352 12.1172408,21.8753366 12.3779873,22.3254775 C12.6473535,22.7899845 12.9167197,23.2544915 13.1781845,23.7010408 C13.3721282,24.0652239 13.7042268,24.2656324 14.1136634,24.2656324 C14.1385648,24.2656324 14.1639451,24.2649141 14.1895648,24.2634775 C14.604269,24.2390549 14.9176915,24.0329 15.1216915,23.6500408 C15.267269,23.3778014 15.3980014,23.152731 15.5450155,22.9226324 C15.8778324,22.3307451 16.2278887,21.7345479 16.5659732,21.1579845 L16.9658324,20.4746324 C16.9670296,20.4729563 16.9677479,20.4712803 16.9687056,20.4696042 C16.974931,20.4789423 16.9813958,20.4880408 16.9873817,20.4971394 C17.2239451,20.9025056 17.4561986,21.303562 17.6884521,21.7046183 C17.9233394,22.1111817 18.1587056,22.5172662 18.3967056,22.9250268 C18.4659028,23.0459423 18.538931,23.1709282 18.6121986,23.2961535 C18.6845085,23.4187451 18.7563394,23.5413366 18.8238606,23.6598577 C19.0324099,24.0249986 19.3609169,24.2390549 19.7507197,24.2634775 C19.7746634,24.2649141 19.7978887,24.2656324 19.8213535,24.2656324 C20.2145085,24.2656324 20.5552268,24.0635479 20.7546775,23.7146887 C21.0235648,23.2552099 21.2924521,22.7909423 21.5611,22.3269141 C21.8223254,21.8765338 22.0833113,21.4259141 22.3447761,20.9793648 C22.6438324,20.4664915 22.9388183,19.9576887 23.2338042,19.4491254 C23.5283113,18.9408014 23.8230577,18.4324775 24.122593,17.9191254 C24.3459873,17.5336324 24.566269,17.1481394 24.7863113,16.7636042 C25.121762,16.1774634 25.4557761,15.5934775 25.7986493,15.0118859 C26.0026493,14.6551254 26.2061704,14.3156042 26.409931,13.9760831 L26.4290859,13.9406465 C26.6543958,13.4572239 26.5483254,13.0686183 26.4144803,12.8181676 Z M30.6362268,17.839393 L33.9756493,17.839393 C33.8518606,20.3173225 33.2056211,22.6563789 32.1303113,24.7464211 L29.2321704,23.0734775 C28.9771704,23.5837169 28.6929592,24.0764775 28.3788183,24.5479282 L31.2779169,26.2213507 C29.9665225,28.2429141 28.2425789,29.9668577 26.2217338,31.2775338 L24.5480718,28.3786746 C24.0763817,28.6928155 23.5838606,28.9772662 23.0736211,29.2317873 L24.7465648,32.1296887 C22.6560437,33.2054775 20.3174662,33.8521958 17.8395366,33.9755056 L17.8395366,30.6360831 C17.5574803,30.653562 17.2739873,30.6652944 16.9878606,30.6652944 C16.7017338,30.6652944 16.4182408,30.653562 16.1361845,30.6360831 L16.1361845,33.9755056 C13.6582549,33.8521958 11.3196775,33.2054775 9.22915634,32.1296887 L10.9021,29.2317873 C10.3918606,28.9772662 9.8991,28.6928155 9.4276493,28.3786746 L7.75374789,31.2775338 C5.73290282,29.9668577 4.00919859,28.2429141 2.69756479,26.2213507 L5.59690282,24.5479282 C5.28276197,24.0764775 4.9985507,23.5837169 4.7435507,23.0734775 L1.84540986,24.7464211 C0.769860563,22.6563789 0.123860563,20.3173225 7.18309859e-05,17.839393 L3.33949437,17.839393 C3.32201549,17.5573366 3.3102831,17.2738437 3.3102831,16.9877169 C3.3102831,16.7015901 3.32201549,16.4180972 3.33949437,16.1360408 L7.18309859e-05,16.1360408 C0.123860563,13.6581113 0.769860563,11.3190549 1.84540986,9.22901268 L4.7435507,10.9021958 C4.99831127,10.3919563 5.28276197,9.89919577 5.59690282,9.42750563 L2.69756479,7.7540831 C4.00919859,5.73251972 5.73290282,4.00857606 7.75374789,2.6979 L9.4276493,5.59675915 C9.8991,5.28261831 10.3918606,4.99816761 10.9021,4.74364648 L9.22915634,1.84550563 C11.3196775,0.769956338 13.6582549,0.123238028 16.1361845,-7.18309859e-05 L16.1361845,3.3393507 C16.4182408,3.32187183 16.7017338,3.31013944 16.9878606,3.31013944 C17.2739873,3.31013944 17.5574803,3.32187183 17.8395366,3.3393507 L17.8395366,-7.18309859e-05 C20.3174662,0.123238028 22.6560437,0.769956338 24.7465648,1.84550563 L23.0736211,4.74364648 C23.5838606,4.99816761 24.0763817,5.28261831 24.5480718,5.59675915 L26.2217338,2.6979 C28.2425789,4.00857606 29.9665225,5.73251972 31.2779169,7.7540831 L28.3788183,9.42750563 C28.6929592,9.89919577 28.9774099,10.3919563 29.2321704,10.9021958 L32.1303113,9.22901268 C33.2056211,11.3190549 33.8518606,13.6581113 33.9756493,16.1360408 L30.6362268,16.1360408 C30.6537056,16.4180972 30.665438,16.7015901 30.665438,16.9877169 C30.665438,17.2738437 30.6537056,17.5573366 30.6362268,17.839393 Z M18.4996634,17.7986887 C18.4508183,17.8884775 18.3931141,17.986407 18.3354099,18.0843366 C18.2949451,18.1528155 18.2544803,18.2210549 18.215931,18.2897732 C18.4599169,18.7138155 18.7173113,19.1586887 18.9744662,19.603562 C19.2450296,20.0714211 19.5153535,20.5390408 19.7811282,21.0028296 C21.0362549,18.8155761 22.2918606,16.6395761 23.5469873,14.4647732 C22.507593,14.4535197 21.4921423,14.4532803 20.4264099,14.4532803 L18.4996634,17.7986887 Z M13.5552972,14.4369986 L13.5344662,14.0515056 L13.5399732,14.433407 C13.5452408,14.4350831 13.5505085,14.4362803 13.5552972,14.4369986 Z M15.5878746,18.0670972 C15.6331282,18.1437169 15.6781423,18.2200972 15.720762,18.2964775 C15.4099732,18.8464634 15.0936775,19.3909423 14.7783394,19.9330268 C14.5705085,20.2907451 14.3631563,20.6475056 14.1615507,20.9982803 L14.1574803,21.0052239 C13.5208183,19.905731 12.8901423,18.8088718 12.2589873,17.7115338 C11.6342972,16.626407 11.0103254,15.5410408 10.380607,14.4532803 C11.4360437,14.4530408 12.4510155,14.4511254 13.4978324,14.4367592 L15.4190718,17.7735479 C15.4724662,17.8714775 15.529931,17.969407 15.5878746,18.0670972 Z" id="Fill-1" fill="#FFFFFF" mask="url(#mask-2)"></path>
            </g>
        </g>
    </g>
</svg>