<?xml version="1.0" encoding="UTF-8"?>
<svg width="36px" height="36px" viewBox="0 0 36 36" version="1.1" xmlns="http://www.w3.org/2000/svg" xmlns:xlink="http://www.w3.org/1999/xlink">
    <!-- Generator: Sketch 51.3 (57544) - http://www.bohemiancoding.com/sketch -->
    <title>Group 3</title>
    <desc>Created with Sketch.</desc>
    <defs></defs>
    <g id="Page-1" stroke="none" stroke-width="1" fill="none" fill-rule="evenodd">
        <g id="Desktop" transform="translate(-375.000000, -24.000000)">
            <g id="Group-4" transform="translate(270.000000, 23.000000)">
                <g id="Group-3" transform="translate(106.000000, 2.000000)">
                    <polygon id="Stroke-1" stroke-opacity="0.00784313771" stroke="#000000" stroke-width="0.53125" points="0 0 33.9999979 0 33.9999979 33.9999979 0 33.9999979"></polygon>
                    <path d="M26.9166651,4.24999974 L20.9949982,4.24999974 C20.3999982,2.60666655 18.8416657,1.41666658 16.999999,1.41666658 C15.1583321,1.41666658 13.5999997,2.60666655 13.0049996,4.24999974 L7.08333291,4.24999974 C5.5249998,4.24999974 4.24999975,5.5249998 4.24999975,7.08333291 L4.24999975,26.9166651 C4.24999975,28.4749987 5.5249998,29.7499982 7.08333291,29.7499982 L26.9166651,29.7499982 C28.4749987,29.7499982 29.7499982,28.4749987 29.7499982,26.9166651 L29.7499982,7.08333291 C29.7499982,5.5249998 28.4749987,4.24999974 26.9166651,4.24999974 Z M16.999999,4.24999974 C17.7791657,4.24999974 18.4166656,4.88749976 18.4166656,5.66666633 C18.4166656,6.44583322 17.7791657,7.08333291 16.999999,7.08333291 C16.2208321,7.08333291 15.5833324,6.44583322 15.5833324,5.66666633 C15.5833324,4.88749942 16.2208321,4.24999974 16.999999,4.24999974 Z M19.8333321,24.0833319 L9.91666607,24.0833319 L9.91666607,21.2499987 L19.8333321,21.2499987 L19.8333321,24.0833319 Z M24.0833319,18.4166656 L9.91666607,18.4166656 L9.91666607,15.5833324 L24.0833319,15.5833324 L24.0833319,18.4166656 Z M24.0833319,12.7499992 L9.91666607,12.7499992 L9.91666607,9.91666607 L24.0833319,9.91666607 L24.0833319,12.7499992 Z" id="Fill-2" fill="#FFFFFF"></path>
                </g>
            </g>
        </g>
    </g>
</svg>