<?xml version="1.0" encoding="UTF-8"?>
<svg width="29px" height="29px" viewBox="0 0 29 29" version="1.1" xmlns="http://www.w3.org/2000/svg" xmlns:xlink="http://www.w3.org/1999/xlink">
    <!-- Generator: Sketch 51.3 (57544) - http://www.bohemiancoding.com/sketch -->
    <title>Fill 1</title>
    <desc>Created with Sketch.</desc>
    <defs></defs>
    <g id="Page-1" stroke="none" stroke-width="1" fill="none" fill-rule="evenodd">
        <g id="Desktop" transform="translate(-586.000000, -26.000000)" fill="#FFFFFF">
            <path d="M607.5,36 C606.119167,36 605,34.8808333 605,33.5 C605,32.1191667 606.119167,31 607.5,31 C608.880833,31 610,32.1191667 610,33.5 C610,34.8808333 608.880833,36 607.5,36 M607.5,50 C606.119167,50 605,48.8808333 605,47.5 C605,46.1191667 606.119167,45 607.5,45 C608.880833,45 610,46.1191667 610,47.5 C610,48.8808333 608.880833,50 607.5,50 M600.5,43 C599.119167,43 598,41.8808333 598,40.5 C598,39.1191667 599.119167,38 600.5,38 C601.880833,38 603,39.1191667 603,40.5 C603,41.8808333 601.880833,43 600.5,43 M593.5,36 C592.119167,36 591,34.8808333 591,33.5 C591,32.1191667 592.119167,31 593.5,31 C594.880833,31 596,32.1191667 596,33.5 C596,34.8808333 594.880833,36 593.5,36 M593.5,50 C592.119167,50 591,48.8808333 591,47.5 C591,46.1191667 592.119167,45 593.5,45 C594.880833,45 596,46.1191667 596,47.5 C596,48.8808333 594.880833,50 593.5,50 M610.972222,26 L590.027778,26 C587.806861,26 586,27.8068611 586,30.0277778 L586,50.9722222 C586,53.1931389 587.806861,55 590.027778,55 L610.972222,55 C613.193139,55 615,53.1931389 615,50.9722222 L615,30.0277778 C615,27.8068611 613.193139,26 610.972222,26" id="Fill-1"></path>
        </g>
    </g>
</svg>