<?xml version="1.0" encoding="UTF-8"?>
<svg width="36px" height="36px" viewBox="0 0 36 36" version="1.1" xmlns="http://www.w3.org/2000/svg" xmlns:xlink="http://www.w3.org/1999/xlink">
    <!-- Generator: Sketch 51.3 (57544) - http://www.bohemiancoding.com/sketch -->
    <title>Group 3</title>
    <desc>Created with Sketch.</desc>
    <defs></defs>
    <g id="Page-1" stroke="none" stroke-width="1" fill="none" fill-rule="evenodd">
        <g id="Desktop" transform="translate(-269.000000, -24.000000)">
            <g id="Group-4" transform="translate(270.000000, 23.000000)">
                <g id="Group-3" transform="translate(0.000000, 2.000000)">
                    <polygon id="Stroke-1" stroke-opacity="0.00784313771" stroke="#000000" stroke-width="0.5" points="0 0 34 0 34 34 0 34"></polygon>
                    <path d="M29.6541353,24.9333333 L29.6541353,26.3365079 C29.6541353,27.8800004 28.3657147,29.1428571 26.7909774,29.1428571 L6.74887218,29.1428571 C5.15981935,29.1428571 3.88571429,27.8800004 3.88571429,26.3365079 L3.88571429,6.69206349 C3.88571429,5.14857155 5.15981935,3.88571429 6.74887218,3.88571429 L26.7909774,3.88571429 C28.3657147,3.88571429 29.6541353,5.14857155 29.6541353,6.69206349 L29.6541353,8.0952381 L16.7699248,8.0952381 C15.1808726,8.0952381 13.9067669,9.35809536 13.9067669,10.9015873 L13.9067669,22.1269841 C13.9067669,23.6704766 15.1808726,24.9333333 16.7699248,24.9333333 L29.6541353,24.9333333 Z M16.7699248,22.1269841 L31.0857143,22.1269841 L31.0857143,10.9015873 L16.7699248,10.9015873 L16.7699248,22.1269841 Z M22.4962406,18.6190476 C21.3080301,18.6190476 20.3488722,17.6789205 20.3488722,16.5142857 C20.3488722,15.3496508 21.3080301,14.4095238 22.4962406,14.4095238 C23.684451,14.4095238 24.643609,15.3496508 24.643609,16.5142857 C24.643609,17.6789205 23.684451,18.6190476 22.4962406,18.6190476 Z" id="Fill-2" fill="#FFFFFF"></path>
                </g>
            </g>
        </g>
    </g>
</svg>