<?xml version="1.0" encoding="UTF-8"?>
<svg width="36px" height="36px" viewBox="0 0 36 36" version="1.1" xmlns="http://www.w3.org/2000/svg" xmlns:xlink="http://www.w3.org/1999/xlink">
    <!-- Generator: Sketch 51.3 (57544) - http://www.bohemiancoding.com/sketch -->
    <title>Group 3</title>
    <desc>Created with Sketch.</desc>
    <defs></defs>
    <g id="Page-1" stroke="none" stroke-width="1" fill="none" fill-rule="evenodd">
        <g id="Desktop" transform="translate(-687.000000, -25.000000)">
            <g id="Group-3" transform="translate(688.000000, 26.000000)">
                <polygon id="Stroke-1" stroke-opacity="0.00784313771" stroke="#000000" stroke-width="0.566666667" points="0 0 33.9999979 0 33.9999979 33.9999979 0 33.9999979"></polygon>
                <path d="M32.1583324,26.9166651 L19.2666659,14.0249986 C20.5416654,10.7666652 19.8333321,6.9416657 17.1416661,4.24999907 C14.3083329,1.41666591 10.0583333,0.849999137 6.65833333,2.40833258 L12.7499992,8.49999949 L8.49999949,12.7499992 L2.26666656,6.65833265 C0.56666664,10.0583326 1.27499997,14.3083329 4.10833321,17.1416661 C6.79999986,19.8333321 10.6249994,20.5416654 13.8833328,19.2666659 L26.7750005,32.1583324 C27.3416666,32.7249985 28.1916671,32.7249985 28.7583332,32.1583324 L32.0166652,28.9000004 C32.7249985,28.3333343 32.7249985,27.3416666 32.1583324,26.9166677 L32.1583324,26.9166651 Z" id="Fill-2" fill="#FFFFFF"></path>
            </g>
        </g>
    </g>
</svg>