<?xml version="1.0" encoding="utf-8"?>
<!-- Generator: Adobe Illustrator 24.2.1, SVG Export Plug-In . SVG Version: 6.00 Build 0)  -->
<svg version="1.1" id="Layer_1" xmlns="http://www.w3.org/2000/svg" xmlns:xlink="http://www.w3.org/1999/xlink" x="0px" y="0px"
	 viewBox="0 0 165.5 109" style="enable-background:new 0 0 165.5 109;" xml:space="preserve">
<style type="text/css">
	.st0{fill:#FFFFFF;}
	.st1{fill:#F40000;}
	.st2{fill-rule:evenodd;clip-rule:evenodd;fill:#910000;}
	.st3{fill-rule:evenodd;clip-rule:evenodd;fill:#A80000;}
	.st4{fill-rule:evenodd;clip-rule:evenodd;fill:#BF0000;}
	.st5{fill-rule:evenodd;clip-rule:evenodd;fill:#F40000;}
</style>
<g>
	<path class="st0" d="M52.5,84.2l-5.4,16.9h-4.7L39,93.5l-3.3,7.6H31l-5.4-16.9h6.1l2.5,8.8l4-8.8h1.6l4.2,9l2.5-9H52.5L52.5,84.2z"
		/>
	<path class="st0" d="M72,84.2v16.9h-4.5L67,99.9c-1.3,1.1-3.1,1.8-5.1,1.8c-5.2,0-8.8-3.8-8.8-9.1c0-5.2,3.6-9,8.8-9
		c1.9,0,3.8,0.6,5.2,1.8l0.6-1.3H72z M66.4,92.7c0-2.2-1.6-3.9-3.8-3.9c-2.2,0-3.8,1.7-3.8,3.9c0,2.2,1.6,3.9,3.8,3.9
		C64.9,96.6,66.4,94.9,66.4,92.7z"/>
	<path class="st0" d="M93.2,84.2v15c0,5.3-3.5,8.6-9.1,8.6c-4.8,0-8.2-2.4-9-6.4h5.7c0.4,1.1,1.8,1.7,3.3,1.7c1.9,0,3.5-1.2,3.5-3.3
		v-0.5c-1.2,0.8-2.8,1.2-4.4,1.2c-4.8,0-8.5-3.6-8.5-8.5c0-4.8,3.6-8.5,8.5-8.5c2.1,0,3.9,0.7,5.3,1.9l0.7-1.5h3.9V84.2z M84.1,95.8
		c2.1,0,3.6-1.6,3.6-3.8c0-2.2-1.6-3.6-3.6-3.6s-3.6,1.6-3.6,3.6C80.5,94.3,82,95.8,84.1,95.8L84.1,95.8z"/>
	<path class="st0" d="M114.2,92.4c0,0.5,0,1-0.1,1.6h-12.6c0.4,1.9,1.6,2.9,3.5,2.9c1.3,0,2.5-0.6,3-1.6h5.8
		c-1.2,3.9-4.6,6.3-8.8,6.3c-5.3,0-9.2-3.9-9.2-9.1c0-5.2,3.9-9,9.2-9C110.5,83.6,114.2,87.5,114.2,92.4L114.2,92.4z M101.6,90.7
		h6.8c-0.5-1.7-1.7-2.7-3.5-2.7C103.3,88.2,102.1,89.2,101.6,90.7z"/>
	<path class="st0" d="M127.9,84.1v5.3h-2.3c-2.1,0-2.9,0.8-2.9,3v8.6h-5.8V84.1h3.9l0.8,1.9c1.2-1.3,2.7-1.9,4.7-1.9H127.9z"/>
	<path class="st1" d="M141.1,84.1v5.3h-2.3c-2.1,0-2.9,0.8-2.9,3v8.6h-5.8V84.1h3.9l0.8,1.9c1.2-1.3,2.7-1.9,4.7-1.9H141.1z"/>
</g>
<g>
	<polygon class="st2" points="61.5,33.9 69.6,33.9 78,51.3 70.1,51.3 	"/>
	<polygon class="st3" points="77.9,29.4 85.9,29.4 78,51.3 70.1,51.3 	"/>
	<polygon class="st4" points="77.9,29.4 85.9,29.4 95.1,51.3 87.1,51.3 	"/>
	<polygon class="st5" points="95.1,51.3 87.1,51.3 96.4,24.5 104.4,24.5 	"/>
	<path class="st0" d="M82.6,74.2c-20.1,0-36.4-16.3-36.4-36.4S62.6,1.3,82.6,1.3s36.4,16.3,36.4,36.4S102.7,74.2,82.6,74.2z
		 M82.6,8.1C66.3,8.1,53,21.4,53,37.7s13.3,29.7,29.7,29.7s29.7-13.3,29.7-29.7S99,8.1,82.6,8.1z"/>
</g>
</svg>
