<?xml version="1.0" encoding="utf-8"?>
<!-- Generator: Adobe Illustrator 22.0.1, SVG Export Plug-In . SVG Version: 6.00 Build 0)  -->
<svg version="1.1" id="Layer_1" xmlns="http://www.w3.org/2000/svg" xmlns:xlink="http://www.w3.org/1999/xlink" x="0px" y="0px"
	 viewBox="0 0 165.5 109" style="enable-background:new 0 0 165.5 109;" xml:space="preserve">
<style type="text/css">
	.st0{fill:#FFFFFF;}
	.st1{fill:#E80000;}
</style>
<g>
	<path class="st0" d="M129.6,10.2c-0.7-1.2-1.9-1.9-3.4-1.9c-9.3,0-18.6,0.1-27.9,0c-2.3,0-3.7,0.9-4.8,2.9
		c-2.3,4.2-4.8,8.4-7.2,12.6c-1,1.8-2,3.6-3,5.3c-0.1,0.1-0.2,0.2-0.3,0.3c-0.1-0.1-0.2-0.2-0.3-0.3c-1-1.8-2-3.6-3-5.3
		c-2.4-4.2-4.9-8.4-7.2-12.6c-1.1-2-2.5-2.9-4.8-2.9c-9.3,0.1-18.6,0-27.9,0c-1.5,0-2.7,0.6-3.4,1.9c-0.7,1.3-0.6,2.6,0.2,3.9
		c1.1,1.8,2.1,3.6,3.1,5.4c2.9,5,5.7,9.9,8.6,14.9c3,5.2,6,10.5,9.1,15.7c2.7,4.7,5.4,9.3,8.1,14c0.7,1.3,1.9,1.9,3.4,1.9
		c1.4-0.1,2.5-0.8,3.2-2.1c0.7-1.3,1.4-2.5,2.2-3.8c2.4-4.2,4.8-8.4,7.2-12.5c0.5-0.9,1.1-1.9,1.7-2.9c0.6,1,1.2,2,1.7,2.9
		c2.4,4.2,4.8,8.4,7.2,12.5c0.7,1.3,1.5,2.5,2.2,3.8c0.7,1.3,1.7,2,3.2,2.1c1.5,0.1,2.6-0.6,3.4-1.9c2.7-4.7,5.4-9.3,8.1-14
		c3-5.2,6.1-10.4,9.1-15.7c2.9-5,5.7-9.9,8.6-14.9c1-1.8,2.1-3.6,3.1-5.4C130.2,12.8,130.3,11.4,129.6,10.2z M78.5,37.8
		c-2.7,4.8-5.5,9.5-8.2,14.3c-0.5,0.9-1.1,1.8-1.7,2.9c-7.6-13.2-15.1-26.2-22.6-39.3c0.4,0,0.7-0.1,1-0.1c6.2,0,12.4,0,18.6-0.1
		c0.7,0,1.1,0.2,1.4,0.8c3.3,5.8,6.6,11.5,10,17.3c0.6,1,1.2,1.9,1.7,2.9C78.6,36.9,78.6,37.5,78.5,37.8z M97.4,55
		c-0.7-1.1-1.2-2-1.7-2.9c-2.8-4.8-5.5-9.5-8.2-14.3c-0.2-0.3-0.2-0.9,0-1.2c0.5-1,1.1-1.9,1.7-2.9c3.3-5.8,6.7-11.5,10-17.3
		c0.3-0.6,0.7-0.8,1.4-0.8c6.2,0,12.4,0,18.6,0.1c0.3,0,0.6,0,1,0.1C112.4,28.8,104.9,41.8,97.4,55z"/>
</g>
<g>
	<path class="st0" d="M6.2,76.2h7.3l4.3,14.4l4.8-14.5h5.9l4.8,14.5l4.3-14.4h7.2l-8.3,25.1h-6l-5-14.3l-5,14.3h-6L6.2,76.2z"/>
	<path class="st0" d="M50.6,76h6.7l10.6,25.1h-7.4l-1.8-4.4H49l-1.8,4.4H40L50.6,76z M56.6,91.3l-2.8-7.1L51,91.3H56.6z"/>
	<path class="st0" d="M79.8,101.6c-1.9,0-3.7-0.3-5.4-0.9c-1.6-0.6-3.1-1.5-4.3-2.7c-1.2-1.1-2.2-2.5-2.8-4.1c-0.7-1.6-1-3.3-1-5.2
		v-0.1c0-1.8,0.3-3.5,1-5.1c0.7-1.6,1.6-3,2.8-4.1c1.2-1.2,2.6-2.1,4.2-2.8c1.6-0.7,3.4-1,5.4-1c2.2,0,4.1,0.3,5.7,1
		c1.6,0.6,3.1,1.5,4.4,2.7l-4.1,4.9c-0.9-0.8-1.8-1.3-2.8-1.7c-0.9-0.4-2-0.6-3.3-0.6c-0.9,0-1.7,0.2-2.5,0.5
		c-0.8,0.4-1.4,0.8-2,1.5c-0.6,0.6-1,1.3-1.4,2.2c-0.3,0.8-0.5,1.7-0.5,2.7v0.1c0,1,0.2,1.9,0.5,2.8c0.3,0.9,0.8,1.6,1.4,2.2
		c0.6,0.6,1.3,1.1,2.1,1.4c0.8,0.3,1.7,0.5,2.7,0.5c1.6,0,3-0.3,4-1v-3h-4.9v-5.1h11.5v11.2c-1.3,1.1-2.9,2-4.7,2.7
		C84.1,101.2,82.1,101.6,79.8,101.6z"/>
	<path class="st0" d="M93,76.2h20v5.9H99.8v3.8h12v5.4h-12v3.9h13.4v5.9H93V76.2z"/>
	<path class="st0" d="M115.4,76.2h11.8c1.9,0,3.5,0.2,4.9,0.7c1.3,0.5,2.4,1.1,3.2,2c1.5,1.4,2.2,3.4,2.2,5.8v0.1
		c0,1.9-0.5,3.5-1.4,4.8c-0.9,1.3-2.2,2.2-3.7,2.9l5.9,8.7h-8l-5-7.5h-0.1h-3v7.5h-6.9V76.2z M126.8,88.1c1.2,0,2.1-0.3,2.7-0.8
		c0.6-0.5,1-1.3,1-2.2v-0.1c0-1-0.3-1.7-1-2.2c-0.7-0.5-1.6-0.7-2.7-0.7h-4.5v6H126.8z"/>
</g>
<path class="st1" d="M153.7,92.3c1.6-0.7,2.8-1.6,3.7-2.9c0.9-1.3,1.4-2.8,1.4-4.7v-0.1c0-2.4-0.7-4.4-2.2-5.8
	c-0.8-0.9-1.9-1.5-3.2-2c-1.3-0.5-2.9-0.7-4.9-0.7h-11.7v1.4c0.7,0.4,1.2,0.8,1.7,1.3c1.5,1.4,2.2,3.3,2.2,5.8v0.1
	c0,1.9-0.5,3.5-1.4,4.7c-0.7,0.9-1.5,1.7-2.6,2.3V94l4.8,6.9h2.1v-7.5h3l5,7.5h7.9L153.7,92.3z M151.9,85.1c0,0.9-0.3,1.6-1,2.1
	c-0.6,0.5-1.5,0.8-2.7,0.8h-4.5v-6h4.5c1.2,0,2.1,0.2,2.7,0.7C151.6,83.3,151.9,84.1,151.9,85.1L151.9,85.1z"/>
</svg>
