<?xml version="1.0" encoding="utf-8"?>
<!-- Generator: Adobe Illustrator 22.0.1, SVG Export Plug-In . SVG Version: 6.00 Build 0)  -->
<svg version="1.1" id="Layer_1" xmlns="http://www.w3.org/2000/svg" xmlns:xlink="http://www.w3.org/1999/xlink" x="0px" y="0px"
	 viewBox="0 0 168.7 68" style="enable-background:new 0 0 168.7 68;" xml:space="preserve">
<style type="text/css">
	.st0{fill:#D80000;}
</style>
<g>
	<polygon class="st0" points="80.9,9.8 80,12.5 70.5,41.2 65.8,55.5 54.8,55.5 45.7,29.3 36.6,55.5 25.6,55.5 10.4,9.8 23.7,9.8 
		31.6,36 40.4,9.6 51.2,9.6 60,36 67.9,9.8 	"/>
	<path class="st0" d="M116.3,28.7v20.5c-0.3,0.3-0.6,0.5-0.9,0.7c-0.6,0.5-1.2,0.9-1.9,1.3c-1.4,0.9-2.8,1.7-4.4,2.4
		c-0.4,0.2-0.8,0.3-1.2,0.5c-0.8,0.3-1.7,0.6-2.5,0.9c-2.6,0.8-5.5,1.1-8.6,1.1c-1.8,0-3.5-0.1-5.1-0.4c-0.8-0.1-1.6-0.3-2.4-0.5
		c-0.4-0.1-0.8-0.2-1.2-0.3c-0.4-0.1-0.8-0.3-1.1-0.4c-0.4-0.1-0.7-0.3-1.1-0.5c-0.7-0.3-1.4-0.7-2.1-1c-0.7-0.4-1.3-0.8-2-1.2
		c-0.9-0.6-1.8-1.4-2.6-2.1c-2.2-2.1-3.9-4.6-5.2-7.4c-0.1-0.3-0.3-0.6-0.4-0.9v0L83,12.6c0.1-0.1,0.3-0.2,0.4-0.3
		c0.6-0.4,1.3-0.7,2.1-1.1c0.4-0.2,0.7-0.3,1.1-0.5c3-1.2,6.2-1.8,9.8-1.8c3,0,5.7,0.3,8.1,1c0.8,0.2,1.6,0.5,2.3,0.8
		c0.4,0.1,0.7,0.3,1.1,0.5c0.4,0.2,0.7,0.3,1.1,0.5c0.3,0.2,0.7,0.3,1,0.5c0.4,0.2,0.7,0.4,1.1,0.6c0.4,0.3,0.8,0.5,1.2,0.8
		c0.1,0,0.1,0.1,0.2,0.1c0.5,0.4,1.1,0.8,1.6,1.2c0.1,0.1,0.3,0.2,0.4,0.3c0.1,0.1,0.2,0.2,0.3,0.3l-7.4,8.9c-0.4-0.3-0.8-0.7-1.2-1
		c-0.7-0.5-1.4-0.9-2.1-1.3c-0.4-0.2-0.7-0.4-1.1-0.6c-0.2-0.1-0.4-0.2-0.6-0.3c-1.7-0.7-3.7-1.1-5.9-1.1c-1.6,0-3.2,0.3-4.6,1
		c-1,0.5-2,1.1-2.8,1.9c-0.1,0.1-0.3,0.2-0.4,0.4c-0.1,0.1-0.3,0.3-0.4,0.4c-1,1.1-1.9,2.4-2.5,3.9c-0.6,1.5-0.9,3.1-0.9,4.9v0.1
		c0,1.8,0.3,3.5,0.9,5c0.6,1.6,1.5,2.9,2.6,4c0.8,0.8,1.8,1.5,2.8,2.1c0.3,0.2,0.7,0.4,1.1,0.5c0.7,0.3,1.5,0.6,2.4,0.7
		c0.8,0.2,1.7,0.2,2.6,0.2c1.1,0,2.1-0.1,3.1-0.3c1-0.2,1.9-0.4,2.7-0.8c0.6-0.2,1.1-0.5,1.5-0.8V38h-9v-9.2H116.3z"/>
	<path class="st0" d="M116,19.4l-0.3,0.4l-0.1,0.1l-3.9,4.7h8.2v31.6h8.7V42.4h5.5l9.1,13.7h14.5L147,40.4c2.9-1.2,5.1-3,6.8-5.3
		c1.7-2.3,2.5-5.2,2.5-8.7v-0.1c0-4.4-1.3-8-4-10.6c-1.5-1.6-3.5-2.8-5.9-3.6c-2.4-0.9-5.4-1.3-8.9-1.3h-14.3l-5,6l-1.9,2.3
		L116,19.4z M143.7,27.2c0,1.6-0.6,2.9-1.8,3.9c-1.2,1-2.8,1.5-5,1.5h-8.3V21.7h8.2c2.1,0,3.8,0.4,5,1.3c1.2,0.9,1.8,2.2,1.8,4.1
		V27.2z"/>
</g>
</svg>
