<?xml version="1.0" encoding="utf-8"?>
<!-- Generator: Adobe Illustrator 16.0.0, SVG Export Plug-In . SVG Version: 6.00 Build 0)  -->
<!DOCTYPE svg PUBLIC "-//W3C//DTD SVG 1.1//EN" "http://www.w3.org/Graphics/SVG/1.1/DTD/svg11.dtd">
<svg version="1.1" id="Layer_1" xmlns="http://www.w3.org/2000/svg" xmlns:xlink="http://www.w3.org/1999/xlink" x="0px" y="0px"
	 width="216px" height="75.5px" viewBox="0 0 216 75.5" enable-background="new 0 0 216 75.5" xml:space="preserve">
<g>
	<polygon fill="#FFFFFF" points="103.087,3.437 101.793,7.318 88.135,48.579 81.378,69.138 65.564,69.138 52.481,31.471 
		39.398,69.138 23.584,69.138 1.732,3.437 20.853,3.437 32.21,41.104 44.862,3.149 60.389,3.149 73.04,41.104 84.398,3.437 	"/>
	<path fill="#FFFFFF" d="M153.98,30.608v29.473c-0.432,0.431-0.861,0.718-1.294,1.005c-0.861,0.72-1.726,1.294-2.731,1.87
		c-2.012,1.294-4.025,2.444-6.325,3.45c-0.575,0.288-1.15,0.432-1.727,0.72c-1.149,0.43-2.443,0.862-3.593,1.294
		c-3.738,1.149-7.907,1.581-12.363,1.581c-2.588,0-5.033-0.145-7.334-0.575c-1.149-0.145-2.3-0.432-3.449-0.719
		c-0.575-0.145-1.15-0.287-1.727-0.432c-0.574-0.144-1.149-0.432-1.581-0.575c-0.574-0.145-1.007-0.432-1.581-0.719
		c-1.007-0.432-2.013-1.007-3.019-1.438c-1.006-0.576-1.869-1.15-2.875-1.726c-1.294-0.862-2.588-2.013-3.737-3.02
		c-3.163-3.019-5.607-6.612-7.476-10.639c-0.144-0.431-0.432-0.861-0.575-1.294l0,0l13.514-41.404
		c0.144-0.144,0.431-0.288,0.575-0.432c0.862-0.575,1.869-1.006,3.02-1.582c0.574-0.288,1.006-0.431,1.581-0.719
		c4.313-1.725,8.913-2.588,14.089-2.588c4.312,0,8.194,0.432,11.646,1.438c1.15,0.288,2.299,0.719,3.306,1.15
		c0.576,0.144,1.007,0.431,1.581,0.719c0.576,0.288,1.007,0.432,1.582,0.719c0.432,0.287,1.006,0.431,1.438,0.719
		c0.575,0.287,1.007,0.575,1.582,0.862c0.574,0.432,1.149,0.719,1.726,1.15c0.143,0,0.143,0.144,0.287,0.144
		c0.719,0.575,1.581,1.15,2.301,1.726c0.143,0.144,0.431,0.287,0.574,0.431c0.144,0.145,0.287,0.288,0.432,0.432l-10.639,12.795
		c-0.576-0.432-1.15-1.007-1.726-1.438c-1.006-0.719-2.013-1.294-3.02-1.869c-0.574-0.288-1.007-0.575-1.581-0.863
		c-0.287-0.144-0.574-0.288-0.862-0.431c-2.444-1.006-5.32-1.582-8.482-1.582c-2.301,0-4.601,0.431-6.613,1.438
		c-1.438,0.719-2.876,1.582-4.025,2.732c-0.145,0.144-0.432,0.287-0.574,0.575c-0.145,0.144-0.432,0.431-0.575,0.575
		c-1.438,1.582-2.731,3.451-3.595,5.607s-1.294,4.457-1.294,7.044v0.144c0,2.588,0.431,5.032,1.294,7.188
		c0.863,2.301,2.156,4.171,3.738,5.752c1.149,1.149,2.587,2.155,4.025,3.019c0.431,0.287,1.006,0.575,1.582,0.718
		c1.005,0.433,2.155,0.863,3.449,1.007c1.15,0.287,2.444,0.287,3.738,0.287c1.581,0,3.019-0.143,4.457-0.431
		c1.437-0.287,2.73-0.575,3.882-1.15c0.862-0.287,1.581-0.719,2.156-1.148v-7.621h-12.939V30.752h29.76V30.608z"/>
	<path fill="#FFFFFF" d="M153.549,17.238l-0.432,0.575l-0.144,0.144l-5.606,6.757h11.789v45.43h12.507V50.306h7.908l13.082,19.695
		H213.5l-15.383-22.572c4.169-1.725,7.332-4.312,9.775-7.619c2.445-3.307,3.594-7.476,3.594-12.508v-0.144
		c0-6.326-1.868-11.501-5.75-15.24c-2.156-2.3-5.031-4.025-8.482-5.175c-3.449-1.294-7.764-1.869-12.794-1.869h-20.561l-7.188,8.626
		l-2.731,3.307L153.549,17.238z M193.372,28.452c0,2.3-0.861,4.169-2.588,5.607c-1.725,1.438-4.025,2.156-7.188,2.156h-11.934
		v-15.67h11.79c3.019,0,5.463,0.575,7.188,1.869s2.588,3.162,2.588,5.895v0.144H193.372z"/>
</g>
</svg>
